<svg width="439" height="301" viewBox="0 0 439 301" fill="none" xmlns="http://www.w3.org/2000/svg">
<path d="M96.5967 240.83C191.947 278.041 273.09 285.289 365.042 227.369C364.368 228.38 346.179 255.327 298.347 269.137C308.452 282.948 322.263 298.779 322.263 298.779C352.916 298.779 382.895 290.021 408.831 273.179C429.042 259.705 440.494 236.463 438.136 212.211C434.094 170.779 424.325 130.358 409.168 91.622C389.968 41.096 343.821 6.064 290.263 1.011C285.547 0.674002 282.179 0.674004 280.158 0.674004L274.769 6.063C336.411 23.579 367.064 50.863 367.737 51.874C273.084 4.04199 161.253 3.369 65.9257 49.853C65.9257 49.853 96.2417 19.874 163.273 4.042L159.231 0C152.157 0 145.42 0.673998 138.347 1.684C88.8307 10.105 47.3997 44.126 29.5467 90.947C14.0517 131.368 3.9467 173.81 0.241695 216.926C-1.7793 239.831 8.9997 262.4 27.8627 275.537C52.7887 292.042 82.4307 300.8 112.41 300.8C112.41 300.8 124.536 284.968 136.663 270.821C91.1887 257.347 72.6627 230.4 72.3257 229.389L80.8837 233.759C85.9997 236.373 91.2447 238.741 96.5967 240.83ZM149.463 211.537C127.568 210.863 110.389 192.337 111.063 170.105C111.737 149.221 128.579 132.379 149.463 131.705C171.358 132.379 188.537 150.905 187.863 173.137C186.852 194.022 170.347 210.864 149.463 211.537ZM286.894 211.537C264.999 210.863 247.82 192.337 248.494 170.105C249.168 149.221 266.01 132.379 286.894 131.705C308.789 132.379 325.968 150.905 325.294 173.137C324.621 194.022 307.778 210.864 286.894 211.537Z" fill="white"/>
</svg>
