<svg width="448" height="416" viewBox="0 0 448 416" fill="none" xmlns="http://www.w3.org/2000/svg">
<path fill-rule="evenodd" clip-rule="evenodd" d="M211.058 3.7857C218.944 -1.2619 229.046 -1.2619 236.932 3.7857L436.932 131.786C448.096 138.931 451.356 153.773 444.208 164.937C437.064 176.102 422.22 179.36 411.056 172.215L391.996 160.015V352C391.996 387.348 363.341 416 327.995 416H119.995C84.6489 416 55.9953 387.348 55.9953 352V160.015L36.9325 172.215C25.7681 179.36 10.9257 176.102 3.78066 164.937C-3.36442 153.773 -0.106299 138.931 11.0577 131.786L211.058 3.7857ZM143.995 236C143.995 247.826 148.66 258.563 156.251 266.469L212.533 324.235C218.814 330.682 229.175 330.681 235.455 324.233L290.6 267.612C298.86 259.613 303.995 248.407 303.995 236C303.995 211.7 284.296 192 259.995 192C245.114 192 231.958 208.388 223.995 219.695C216.032 208.388 202.877 192 187.995 192C163.694 192 143.995 211.7 143.995 236Z" fill="white"/>
</svg>
