<svg width="74" height="58" viewBox="0 0 74 58" fill="none" xmlns="http://www.w3.org/2000/svg">
<path d="M37.66 52.7166C35.504 51.4512 33.7031 49.8157 32.249 47.7678C31.9728 47.3788 31.6672 47.2513 31.2241 47.2529C26.8492 47.2693 22.4742 47.2728 18.0992 47.2668C17.4456 47.266 16.7828 47.2586 16.1408 47.1472C15.0722 46.9618 14.1879 46.3975 13.5869 45.422C13.3711 45.0717 13.1106 44.9501 12.7248 44.9529C10.7013 44.9674 8.67751 44.9566 6.65391 44.9618C6.03461 44.9635 5.95051 45.0954 6.24491 45.6812C7.35911 47.8984 8.99691 49.5846 11.0254 50.8611C13.1316 52.1865 15.426 52.7573 17.8646 52.757C21.989 52.7566 26.1135 52.7619 30.2379 52.774C31.3745 52.7773 32.5109 52.8192 33.6475 52.8298C33.9359 52.8325 34.1697 52.9218 34.3746 53.1338C36.1303 54.9506 38.3029 55.9646 40.6013 56.7335C40.7987 56.7996 41.02 56.8099 41.1575 57.0619C41.0416 57.2911 40.8262 57.2925 40.6229 57.2984C40.1798 57.3113 39.7365 57.3176 39.2933 57.3177C32.22 57.3191 25.1467 57.3224 18.0734 57.3184C10.7633 57.3143 4.31751 52.6912 1.62501 45.4896C0.87041 43.4714 0.49211 41.3634 0.43641 39.1821C0.38241 37.0645 0.35811 34.9471 0.38781 32.8305C0.50151 24.7298 4.04821 18.9276 10.9633 15.4663C13.0512 14.4212 15.312 13.9818 17.6201 13.8517C18.1967 13.8192 18.7723 13.7683 19.3487 13.7333C19.5733 13.7197 19.7427 13.6131 19.7435 13.3772C19.7483 11.9385 19.9213 10.476 19.3326 9.1048C18.3952 6.9213 16.7458 5.91 14.5128 5.8826C14.0503 5.877 13.5938 5.8675 13.1498 5.6811C12.1682 5.269 11.523 4.2898 11.5593 3.2234C11.5966 2.1269 12.2728 1.2313 13.2861 0.878299C14.4296 0.479899 15.5467 0.754898 16.6382 1.0572C18.6292 1.6085 20.2219 2.8064 21.4022 4.6011C21.5309 4.7967 21.6318 5.0274 21.9137 5.1374C22.3111 4.6096 22.6881 4.0481 23.1229 3.5418C24.9477 1.417 27.2634 0.5868 29.9252 0.7921C31.2034 0.8906 32.2393 2.1585 32.1925 3.4381C32.1461 4.7057 31.0738 5.7961 29.7857 5.8665C29.0546 5.9065 28.3201 5.9164 27.607 6.1105C25.5621 6.6671 24.0171 8.7715 24.0046 11.005C24.0007 11.6974 24.0297 12.3913 23.9957 13.0819C23.9705 13.5935 24.1542 13.7328 24.6242 13.7478C28.6583 13.8767 32.3439 15.1314 35.618 17.6513C37.3235 18.9639 38.8189 20.5161 40.2008 22.1995C41.564 23.8601 42.9321 25.5208 44.5743 26.8921C46.6206 28.6008 48.9239 29.6341 51.5582 29.4745C54.3779 29.3036 56.6833 28.0916 58.0596 25.3272C58.149 25.1476 58.2242 24.9588 58.2911 24.7684C58.5669 23.9845 58.5006 23.8757 57.7349 23.7093C54.1346 22.9268 51.4265 20.8929 49.8085 17.3535C49.2042 16.0317 48.9362 14.6123 48.9265 13.1576C48.9189 12.0067 48.7357 10.8331 49.1368 9.7075C49.4683 8.7768 50.0461 8.1613 51.0337 8.0846C51.9983 8.0096 52.8366 8.496 53.1124 9.5566C53.5483 11.233 54.5958 11.9528 56.1282 12.2069C58.0847 12.5312 59.7258 13.4885 60.9497 15.1723C61.0198 15.2688 61.0826 15.3713 61.142 15.4609C61.6233 15.3042 61.7618 14.8822 62.0013 14.5881C63.2486 13.0562 64.918 12.4535 66.7232 12.1486C67.9997 11.933 68.8772 11.2758 69.2374 9.8981C69.5776 8.5973 70.2966 7.9839 71.2842 8.0329C72.3164 8.0841 73.3109 8.9409 73.4617 10.1444C74.0308 14.6859 73.1482 19.1348 68.9578 22.0578C67.9017 22.7944 66.7283 23.2479 65.5105 23.5838C65.1599 23.6805 64.8112 23.7845 64.4348 23.8929C64.499 24.9229 64.7522 25.8829 64.8522 26.8687C65.1395 29.7013 64.728 32.4218 63.8248 35.0746C62.2813 39.6085 59.4256 43.0489 55.7475 45.7891C55.2444 46.1639 54.7477 46.6853 54.1864 46.7989C53.5733 46.923 53.2903 46.0988 52.8357 45.727C51.3199 44.4869 49.6302 44.0172 47.6987 44.2838C47.7367 44.677 47.9835 44.929 48.2058 45.191C49.5238 46.7451 51.1314 47.8852 52.8658 48.8507C53.63 49.2761 54.4356 49.6341 55.0696 50.2893C56.5057 51.7732 56.1657 53.7311 54.3078 54.5627C53.1459 55.0828 51.9104 55.3202 50.6675 55.4745C47.5469 55.8619 44.4869 55.5603 41.4937 54.5181C40.1698 54.0571 38.9209 53.4308 37.66 52.7166ZM4.53721 31.433C4.51221 33.2636 4.47051 35.0943 4.46901 36.925C4.46831 37.9082 5.04881 38.5612 5.83281 38.5541C6.66621 38.5466 7.05721 38.0348 7.05941 36.9394C7.06301 35.1282 7.04091 33.3165 7.07051 31.5058C7.12791 27.9869 8.57691 25.2258 11.225 23.1345C12.0519 22.4814 12.9918 22.0689 13.9387 21.6615C14.8346 21.2761 15.141 20.482 14.7232 19.7181C14.3565 19.0477 13.6428 18.8471 12.7892 19.1979C7.89861 21.2081 4.51891 26.4304 4.53721 31.433ZM23.8172 35.8848C24.6669 36.2135 25.5075 36.2234 26.3422 35.8204C27.704 35.1628 28.4382 33.5324 28.0746 31.96C27.7332 30.483 26.3501 29.3782 24.9586 29.4709C23.4946 29.5685 22.2253 30.6235 21.9447 31.9758C21.5969 33.6522 22.2338 35.0318 23.8172 35.8848Z" fill="white"/>
</svg>
