<svg width="512" height="512" viewBox="0 0 512 512" fill="none" xmlns="http://www.w3.org/2000/svg">
<path d="M165.976 241H326.976C349.067 241 366.976 223.091 366.976 201V40C366.976 17.909 349.067 0 326.976 0H165.976C143.885 0 125.976 17.909 125.976 40V201C125.976 223.091 143.885 241 165.976 241ZM185.087 175.161L230.147 56.851C230.19 56.737 230.235 56.623 230.281 56.51C233.014 49.829 239.445 45.507 246.664 45.5H246.682C253.894 45.5 260.325 49.807 263.069 56.478C263.125 56.614 263.179 56.751 263.231 56.889L307.881 175.204C310.806 182.955 306.894 191.609 299.144 194.534C297.4 195.192 295.61 195.504 293.85 195.504C287.788 195.504 282.08 191.803 279.814 185.796L272.356 166.034H220.665L213.122 185.838C210.173 193.58 201.507 197.465 193.766 194.517C186.024 191.569 182.139 182.903 185.087 175.161Z" fill="#F9DD57"/>
<path d="M246.629 97.8633L232.091 136.035H261.034L246.629 97.8633Z" fill="#F9DF5C"/>
<path d="M124.822 401.758C124.822 401.758 101.253 401.776 98.877 401.785V436.438C108.512 436.4 120.064 436.358 124.822 436.358C134.362 436.358 142.122 428.597 142.122 419.058C142.122 409.519 134.362 401.758 124.822 401.758Z" fill="#EF90BF"/>
<path d="M201 271H40C17.909 271 0 288.909 0 311V472C0 494.091 17.909 512 40 512H201C223.091 512 241 494.091 241 472V311C241 288.909 223.091 271 201 271ZM124.822 466.357C116.109 466.357 84.264 466.498 83.944 466.5C83.922 466.5 83.9 466.5 83.878 466.5C79.912 466.5 76.107 464.929 73.295 462.13C70.467 459.315 68.878 455.489 68.878 451.5V331.5C68.878 323.216 75.594 316.5 83.878 316.5H118.735C142.231 316.5 161.347 335.616 161.347 359.112C161.347 367.64 158.819 375.584 154.488 382.253C165.233 390.931 172.123 404.201 172.123 419.057C172.123 445.139 150.904 466.357 124.822 466.357Z" fill="#EF90BF"/>
<path d="M131.347 359.112C131.347 352.157 125.689 346.5 118.735 346.5H98.877V371.757C98.877 371.757 116.128 371.724 118.734 371.724C125.689 371.724 131.347 366.066 131.347 359.112Z" fill="#EF90BF"/>
<path d="M472 271H311C288.909 271 271 288.909 271 311V472C271 494.091 288.909 512 311 512H472C494.091 512 512 494.091 512 472V311C512 288.909 494.091 271 472 271ZM451.893 444.201C449.918 446.556 447.769 448.772 445.507 450.787C433.966 461.067 419.129 466.5 402.6 466.5C361.245 466.5 327.6 432.855 327.6 391.5C327.6 350.145 361.245 316.5 402.6 316.5C417.627 316.5 432.131 320.932 444.544 329.317C451.409 333.955 453.214 343.279 448.577 350.144C443.939 357.008 434.615 358.814 427.75 354.177C420.316 349.155 411.62 346.5 402.6 346.5C377.787 346.5 357.6 366.687 357.6 391.5C357.6 416.313 377.787 436.5 402.6 436.5C411.785 436.5 419.508 433.77 425.553 428.385C426.734 427.333 427.862 426.169 428.907 424.923C434.231 418.575 443.691 417.745 450.039 423.069C456.386 428.392 457.216 437.853 451.893 444.201Z" fill="#90D95B"/>
</svg>
