<svg width="64" height="64" viewBox="0 0 64 64" fill="none" xmlns="http://www.w3.org/2000/svg">
<g clip-path="url(#clip0_6774_2810)">
<path d="M60 26H52.7861C52.103 25.9972 51.4397 26.2294 50.9076 26.6576C50.3754 27.0859 50.0066 27.6841 49.8633 28.352C48.7383 33.8521 41.0586 38 32 38C22.9414 38 15.2617 33.852 14.1367 28.352C13.9934 27.6841 13.6246 27.0859 13.0924 26.6576C12.5603 26.2294 11.897 25.9972 11.2139 26H4C3.20462 26.0009 2.44206 26.3172 1.87964 26.8797C1.31722 27.4421 1.00087 28.2046 1 29V50H17.1559C18.1374 46.5188 24.1812 44 32 44C39.8188 44 45.8626 46.5188 46.8441 50H63V29C62.9991 28.2046 62.6828 27.4421 62.1204 26.8797C61.5579 26.3172 60.7954 26.0009 60 26Z" fill="white"/>
<path d="M32 58C24.1812 58 18.1374 55.4813 17.1559 52H1V61C1.00087 61.7954 1.31722 62.5579 1.87964 63.1204C2.44206 63.6828 3.20462 63.9991 4 64H60C60.7954 63.9991 61.5579 63.6828 62.1204 63.1204C62.6828 62.5579 62.9991 61.7954 63 61V52H46.8441C45.8626 55.4813 39.8188 58 32 58Z" fill="white"/>
<path d="M32 56C39.1797 56 45 53.7614 45 51C45 48.2386 39.1797 46 32 46C24.8203 46 19 48.2386 19 51C19 53.7614 24.8203 56 32 56Z" fill="white"/>
<path d="M19 11H31V15H19V11Z" fill="white"/>
<path d="M26.9185 1.2344C26.7512 0.866287 26.4815 0.554126 26.1415 0.335227C25.8015 0.116328 25.4057 -5.06062e-05 25.0014 1.6508e-08C24.597 5.06392e-05 24.2012 0.116528 23.8613 0.335512C23.5214 0.554497 23.2517 0.866725 23.0845 1.23488L19.5547 9.00002H30.4484L26.9185 1.2344Z" fill="white"/>
<path d="M31 17H19V32.15C21.75 34.33 26.14 35.8 31 35.98V17Z" fill="white"/>
<path d="M5 11H17V15H5V11Z" fill="white"/>
<path d="M12.9185 1.2344C12.7512 0.866287 12.4815 0.554126 12.1415 0.335227C11.8015 0.116328 11.4057 -5.06062e-05 11.0014 1.6508e-08C10.597 5.06392e-05 10.2012 0.116528 9.86132 0.335512C9.52141 0.554497 9.25173 0.866725 9.08453 1.23488L5.55469 9.00002H16.4484L12.9185 1.2344Z" fill="white"/>
<path d="M16.1 27.95C16.2596 28.6991 16.5654 29.4093 17 30.04V17H5V24H11.21C12.3547 23.9968 13.4656 24.3877 14.3561 25.107C15.2466 25.8263 15.8624 26.8302 16.1 27.95Z" fill="white"/>
<path d="M33 11H45V15H33V11Z" fill="white"/>
<path d="M40.9185 1.2344C40.7512 0.866287 40.4815 0.554126 40.1415 0.335227C39.8015 0.116328 39.4057 -5.06062e-05 39.0014 1.6508e-08C38.597 5.06392e-05 38.2012 0.116528 37.8613 0.335512C37.5214 0.554497 37.2517 0.866725 37.0845 1.23488L33.5547 9.00002H44.4484L40.9185 1.2344Z" fill="white"/>
<path d="M45 17H33V35.98C37.86 35.8 42.25 34.33 45 32.15V17Z" fill="white"/>
<path d="M47 11H59V15H47V11Z" fill="white"/>
<path d="M54.9185 1.2344C54.7512 0.866287 54.4815 0.554126 54.1415 0.335227C53.8015 0.116328 53.4057 -5.06062e-05 53.0014 1.6508e-08C52.597 5.06392e-05 52.2012 0.116528 51.8613 0.335512C51.5214 0.554497 51.2517 0.866725 51.0845 1.23488L47.5547 9.00002H58.4484L54.9185 1.2344Z" fill="white"/>
<path d="M52.79 24H59V17H47V30.04C47.4346 29.4093 47.7404 28.6991 47.9 27.95C48.1376 26.8302 48.7534 25.8263 49.6439 25.107C50.5344 24.3877 51.6453 23.9968 52.79 24Z" fill="white"/>
</g>
<defs>
<clipPath id="clip0_6774_2810">
<rect width="64" height="64" fill="white"/>
</clipPath>
</defs>
</svg>
