<svg width="512" height="512" viewBox="0 0 512 512" fill="none" xmlns="http://www.w3.org/2000/svg">
<g clip-path="url(#clip0_6774_2827)">
<path d="M130.238 138.266L85.8806 141.693C73.5377 142.647 62.5448 149.116 55.7188 159.44L4.56221 236.812C-0.614746 244.642 -1.43774 254.441 2.35923 263.025C6.1572 271.609 13.9621 277.591 23.2371 279.028L63.8517 285.317C73.3527 234.898 96.0965 184.602 130.238 138.266Z" fill="white"/>
<path d="M226.68 448.144L232.971 488.759C234.408 498.034 240.39 505.839 248.973 509.636C252.543 511.216 256.323 511.996 260.084 511.996C265.367 511.996 270.613 510.457 275.186 507.433L352.56 456.277C362.885 449.45 369.354 438.456 370.306 426.115L373.733 381.758C327.395 415.901 277.1 438.644 226.68 448.144Z" fill="white"/>
<path d="M211.402 419.996C212.812 419.996 214.23 419.88 215.645 419.644C236.769 416.112 257.129 410.162 276.551 402.374L109.622 235.445C101.834 254.866 95.884 275.226 92.352 296.351C90.96 304.678 93.753 313.161 99.722 319.131L192.865 412.274C197.821 417.229 204.51 419.996 211.402 419.996Z" fill="white"/>
<path d="M471.176 227.001C512.025 148.028 513.538 64.5725 511.403 25.4328C510.672 12.0219 499.98 1.32999 486.568 0.598995C480.195 0.250998 472.642 0 464.129 0C420.364 0 351.113 6.62895 285 40.8257C232.458 68.0025 163.562 127.843 122.914 206.484C123.394 206.859 123.863 207.257 124.305 207.699L304.304 387.698C304.746 388.14 305.143 388.608 305.518 389.088C384.159 348.439 444 279.543 471.176 227.001ZM297.698 108.239C326.938 78.9984 374.519 78.9954 403.762 108.239C417.928 122.404 425.729 141.239 425.729 161.272C425.729 181.305 417.928 200.139 403.762 214.304C389.143 228.923 369.933 236.234 350.73 236.236C331.521 236.237 312.321 228.927 297.698 214.304C283.532 200.139 275.73 181.305 275.73 161.272C275.73 141.239 283.532 122.404 297.698 108.239Z" fill="white"/>
<path d="M318.907 193.095C336.452 210.64 365.002 210.641 382.547 193.095C391.046 184.595 395.727 173.295 395.727 161.275C395.727 149.255 391.046 137.955 382.547 129.456C373.775 120.683 362.251 116.297 350.727 116.297C339.204 116.297 327.68 120.683 318.908 129.456C310.409 137.955 305.727 149.255 305.727 161.275C305.727 173.295 310.408 184.596 318.907 193.095Z" fill="white"/>
<path d="M15.3052 421.934C19.1442 421.934 22.9832 420.47 25.9112 417.54L74.8842 368.567C80.7422 362.709 80.7422 353.212 74.8842 347.354C69.0272 341.496 59.5292 341.496 53.6712 347.354L4.69819 396.327C-1.15981 402.185 -1.15981 411.682 4.69819 417.54C7.62719 420.469 11.4662 421.934 15.3052 421.934Z" fill="white"/>
<path d="M119.761 392.237C113.904 386.379 104.406 386.379 98.5485 392.237L4.3935 486.392C-1.4645 492.25 -1.4645 501.747 4.3935 507.605C7.3225 510.534 11.1615 511.998 15.0005 511.998C18.8395 511.998 22.6785 510.534 25.6065 507.604L119.76 413.45C125.619 407.592 125.619 398.095 119.761 392.237Z" fill="white"/>
<path d="M143.428 437.12L94.456 486.093C88.598 491.951 88.598 501.448 94.456 507.306C97.385 510.235 101.224 511.7 105.062 511.7C108.9 511.7 112.74 510.236 115.668 507.306L164.641 458.333C170.499 452.475 170.499 442.978 164.641 437.12C158.784 431.262 149.286 431.262 143.428 437.12Z" fill="white"/>
</g>
<defs>
<clipPath id="clip0_6774_2827">
<rect width="512" height="512" fill="white"/>
</clipPath>
</defs>
</svg>
