<svg width="512" height="512" viewBox="0 0 512 512" fill="none" xmlns="http://www.w3.org/2000/svg">
<g clip-path="url(#clip0_4532_12)">
<path fill-rule="evenodd" clip-rule="evenodd" d="M186.864 374.926C137.073 374.926 89.9824 355.43 54.8893 320.037C19.4962 284.644 0 237.853 0 188.063C0 137.973 19.4962 91.1816 54.8893 55.7886C89.9824 20.3955 137.073 1.19922 186.864 1.19922C236.654 1.19922 283.745 20.3955 319.138 55.7886C354.231 91.1816 373.727 137.973 373.727 188.063C373.727 237.853 354.231 284.644 319.138 320.037C283.745 355.43 236.654 374.926 186.864 374.926ZM186.864 332.934C148.171 332.934 111.578 317.937 84.2835 290.643C56.9889 263.048 41.6919 226.755 41.6919 188.063C41.6919 149.07 56.9889 112.777 84.2835 85.1828C111.578 57.8881 148.171 42.8911 186.864 42.8911C225.556 42.8911 262.149 57.8881 289.443 85.1828C346.132 141.872 346.132 233.954 289.443 290.643C262.149 317.937 225.556 332.934 186.864 332.934Z" fill="white"/>
<path fill-rule="evenodd" clip-rule="evenodd" d="M359.33 392.622C356.93 392.622 354.531 391.722 352.731 389.923L312.539 349.73C319.438 344.331 325.736 338.933 331.735 332.634C338.634 326.035 344.633 318.836 350.332 311.338L390.824 351.83C394.423 355.429 394.423 361.128 390.824 364.727C389.024 366.227 386.925 367.127 384.525 367.127C382.425 367.127 380.626 366.527 379.126 365.327L367.428 379.725C368.928 383.024 368.328 386.923 365.629 389.923C363.829 391.722 361.43 392.622 359.33 392.622Z" fill="white"/>
<path fill-rule="evenodd" clip-rule="evenodd" d="M473.007 510.8C462.809 510.8 452.911 506.901 445.713 499.403L361.129 415.119C353.93 407.92 350.031 398.022 350.031 387.824C350.031 377.326 353.93 367.428 361.129 360.23C368.628 353.031 378.226 348.832 388.724 348.832C399.222 348.832 408.82 353.031 416.318 360.23L500.602 444.513C515.599 459.81 515.599 484.406 500.602 499.403C493.103 506.901 483.505 510.8 473.007 510.8Z" fill="white"/>
<path fill-rule="evenodd" clip-rule="evenodd" d="M126.275 248.65C92.6819 215.057 92.6819 160.767 126.275 127.174C129.575 123.575 129.575 117.876 126.275 114.576C122.676 110.977 116.977 110.977 113.378 114.576C72.8858 155.069 72.8858 220.756 113.378 261.248C115.178 263.047 117.577 263.947 119.677 263.947C122.076 263.947 124.476 263.047 126.275 261.248C129.575 257.948 129.575 252.25 126.275 248.65Z" fill="white"/>
</g>
<defs>
<clipPath id="clip0_4532_12">
<rect width="512" height="512" fill="white"/>
</clipPath>
</defs>
</svg>
